<svg xmlns="http://www.w3.org/2000/svg" viewBox="0 0 1200 750" width="1200" height="750">
  <defs>
    <pattern id="bg-dots" width="20" height="20" patternUnits="userSpaceOnUse">
      <circle cx="10" cy="10" r="0.8" fill="#cbd5e1" opacity="0.3"/>
    </pattern>
    <marker id="arrow" viewBox="0 0 10 10" refX="8" refY="5" markerWidth="5" markerHeight="5" orient="auto">
      <path d="M0,0 L10,5 L0,10 Z" fill="#94a3b8"/>
    </marker>
  </defs>
  <rect width="1200" height="750" fill="#f8f6f0"/>
  <rect width="1200" height="750" fill="url(#bg-dots)"/>
  <rect x="8" y="8" width="1184" height="734" rx="10" fill="none" stroke="#1e293b" stroke-width="2"/>
  <text x="600" y="36" text-anchor="middle" font-family="Arial" font-size="18" font-weight="800" fill="#0f172a">Augur v6.0 System Architecture</text>

  <!-- Layer 1: User Access -->
  <rect x="20" y="50" width="1160" height="72" rx="6" fill="#fff" stroke="#2563eb" stroke-width="1.5"/>
  <rect x="20" y="50" width="1160" height="18" rx="6" fill="#eff6ff" stroke="none"/>
  <rect x="20" y="62" width="1160" height="6" fill="#eff6ff" stroke="none"/>
  <text x="30" y="63" font-family="Arial" font-size="9" font-weight="700" fill="#1e40af">Layer 1: User Access</text>
  <g transform="translate(30,76)"><rect width="140" height="36" rx="5" fill="#f8fafc" stroke="#2563eb" stroke-width="1.2"/><text x="70" y="15" text-anchor="middle" font-family="Arial" font-size="9" font-weight="600" fill="#1e40af">Hermes Web UI</text><text x="70" y="28" text-anchor="middle" font-family="Arial" font-size="7" fill="#64748b">React / Socket.IO</text></g>
  <g transform="translate(180,76)"><rect width="140" height="36" rx="5" fill="#f8fafc" stroke="#2563eb" stroke-width="1.2"/><text x="70" y="15" text-anchor="middle" font-family="Arial" font-size="9" font-weight="600" fill="#1e40af">Augur Dashboard</text><text x="70" y="28" text-anchor="middle" font-family="Arial" font-size="7" fill="#64748b">7 pages / Bloomberg-style</text></g>
  <g transform="translate(330,76)"><rect width="130" height="36" rx="5" fill="#f8fafc" stroke="#2563eb" stroke-width="1.2"/><text x="65" y="15" text-anchor="middle" font-family="Arial" font-size="9" font-weight="600" fill="#1e40af">CLI</text><text x="65" y="28" text-anchor="middle" font-family="Arial" font-size="7" fill="#64748b">15 commands / Click</text></g>
  <g transform="translate(470,76)"><rect width="140" height="36" rx="5" fill="#f8fafc" stroke="#2563eb" stroke-width="1.2"/><text x="70" y="15" text-anchor="middle" font-family="Arial" font-size="9" font-weight="600" fill="#1e40af">MCP Server</text><text x="70" y="28" text-anchor="middle" font-family="Arial" font-size="7" fill="#64748b">6 tools / stdio</text></g>
  <g transform="translate(620,76)"><rect width="100" height="36" rx="5" fill="#f8fafc" stroke="#2563eb" stroke-width="1.2"/><text x="50" y="15" text-anchor="middle" font-family="Arial" font-size="9" font-weight="600" fill="#1e40af">Telegram</text><text x="50" y="28" text-anchor="middle" font-family="Arial" font-size="7" fill="#64748b">Bot API</text></g>
  <g transform="translate(730,76)"><rect width="100" height="36" rx="5" fill="#f8fafc" stroke="#2563eb" stroke-width="1.2"/><text x="50" y="15" text-anchor="middle" font-family="Arial" font-size="9" font-weight="600" fill="#1e40af">Slack</text><text x="50" y="28" text-anchor="middle" font-family="Arial" font-size="7" fill="#64748b">Webhook</text></g>
  <g transform="translate(840,76)"><rect width="140" height="36" rx="5" fill="#f8fafc" stroke="#2563eb" stroke-width="1.2"/><text x="70" y="15" text-anchor="middle" font-family="Arial" font-size="9" font-weight="600" fill="#1e40af">WeChat (GeWeChat)</text><text x="70" y="28" text-anchor="middle" font-family="Arial" font-size="7" fill="#64748b">Personal/WeCom/Group</text></g>
  <g transform="translate(990,76)"><rect width="100" height="36" rx="5" fill="#f8fafc" stroke="#2563eb" stroke-width="1.2"/><text x="50" y="15" text-anchor="middle" font-family="Arial" font-size="9" font-weight="600" fill="#1e40af">Lark</text><text x="50" y="28" text-anchor="middle" font-family="Arial" font-size="7" fill="#64748b">Lark Webhook</text></g>
  <line x1="600" y1="122" x2="600" y2="138" stroke="#94a3b8" stroke-width="1.5" marker-end="url(#arrow)"/>

  <!-- Layer 2: Core Engine -->
  <rect x="20" y="140" width="1160" height="80" rx="6" fill="#fff" stroke="#059669" stroke-width="1.5"/>
  <rect x="20" y="140" width="1160" height="18" rx="6" fill="#ecfdf5" stroke="none"/>
  <rect x="20" y="152" width="1160" height="6" fill="#ecfdf5" stroke="none"/>
  <text x="30" y="153" font-family="Arial" font-size="9" font-weight="700" fill="#065f46">Layer 2: Core Engine</text>
  <g transform="translate(35,166)"><rect width="200" height="42" rx="5" fill="#f8fafc" stroke="#059669" stroke-width="1.2"/><text x="100" y="17" text-anchor="middle" font-family="Arial" font-size="9" font-weight="600" fill="#065f46">AgentRegistry</text><text x="100" y="32" text-anchor="middle" font-family="Arial" font-size="7" fill="#64748b">18 Agents / YAML loader</text></g>
  <g transform="translate(255,166)"><rect width="200" height="42" rx="5" fill="#f8fafc" stroke="#059669" stroke-width="1.2"/><text x="100" y="17" text-anchor="middle" font-family="Arial" font-size="9" font-weight="600" fill="#065f46">DecisionCoordinator</text><text x="100" y="32" text-anchor="middle" font-family="Arial" font-size="7" fill="#64748b">6-layer consensus / Industry weights</text></g>
  <g transform="translate(475,166)"><rect width="200" height="42" rx="5" fill="#f8fafc" stroke="#059669" stroke-width="1.2"/><text x="100" y="17" text-anchor="middle" font-family="Arial" font-size="9" font-weight="600" fill="#065f46">DebateProtocol</text><text x="100" y="32" text-anchor="middle" font-family="Arial" font-size="7" fill="#64748b">Multi-round debate</text></g>
  <g transform="translate(695,166)"><rect width="200" height="42" rx="5" fill="#f8fafc" stroke="#059669" stroke-width="1.2"/><text x="100" y="17" text-anchor="middle" font-family="Arial" font-size="9" font-weight="600" fill="#065f46">Soul Injector</text><text x="100" y="32" text-anchor="middle" font-family="Arial" font-size="7" fill="#64748b">Soul injection engine</text></g>
  <g transform="translate(915,166)"><rect width="245" height="42" rx="5" fill="#f8fafc" stroke="#059669" stroke-width="1.2"/><text x="122" y="17" text-anchor="middle" font-family="Arial" font-size="9" font-weight="600" fill="#065f46">Persona Loader (YAML)</text><text x="122" y="32" text-anchor="middle" font-family="Arial" font-size="7" fill="#64748b">Custom Agent / Hot-reload</text></g>
  <line x1="600" y1="220" x2="600" y2="236" stroke="#94a3b8" stroke-width="1.5" marker-end="url(#arrow)"/>

  <!-- Layer 3: Agent Personas (17) -->
  <rect x="20" y="238" width="1160" height="148" rx="6" fill="#fff" stroke="#4f46e5" stroke-width="1.5"/>
  <rect x="20" y="238" width="1160" height="18" rx="6" fill="#eef2ff" stroke="none"/>
  <rect x="20" y="250" width="1160" height="6" fill="#eef2ff" stroke="none"/>
  <text x="30" y="251" font-family="Arial" font-size="9" font-weight="700" fill="#3730a3">Layer 3: Agent Personas (17)</text>
  <!-- Blue=Value row -->
  <g transform="translate(30,264)"><rect width="135" height="28" rx="4" fill="#dbeafe" stroke="#1e293b" stroke-width="1"/><text x="68" y="18" text-anchor="middle" font-family="Arial" font-size="8" font-weight="600" fill="#1e40af">Buffett</text></g>
  <g transform="translate(175,264)"><rect width="135" height="28" rx="4" fill="#dbeafe" stroke="#1e293b" stroke-width="1"/><text x="68" y="18" text-anchor="middle" font-family="Arial" font-size="8" font-weight="600" fill="#1e40af">Graham</text></g>
  <g transform="translate(320,264)"><rect width="135" height="28" rx="4" fill="#dbeafe" stroke="#1e293b" stroke-width="1"/><text x="68" y="18" text-anchor="middle" font-family="Arial" font-size="8" font-weight="600" fill="#1e40af">Munger</text></g>
  <g transform="translate(465,264)"><rect width="135" height="28" rx="4" fill="#dbeafe" stroke="#1e293b" stroke-width="1"/><text x="68" y="18" text-anchor="middle" font-family="Arial" font-size="8" font-weight="600" fill="#1e40af">Li Lu</text></g>
  <text x="30" y="260" font-family="Arial" font-size="7" fill="#1e40af">Blue=Value</text>
  <!-- Green=Macro row -->
  <g transform="translate(630,264)"><rect width="120" height="28" rx="4" fill="#dcfce7" stroke="#1e293b" stroke-width="1"/><text x="60" y="18" text-anchor="middle" font-family="Arial" font-size="8" font-weight="600" fill="#166534">Dalio</text></g>
  <g transform="translate(760,264)"><rect width="120" height="28" rx="4" fill="#dcfce7" stroke="#1e293b" stroke-width="1"/><text x="60" y="18" text-anchor="middle" font-family="Arial" font-size="8" font-weight="600" fill="#166534">Soros</text></g>
  <g transform="translate(890,264)"><rect width="120" height="28" rx="4" fill="#dcfce7" stroke="#1e293b" stroke-width="1"/><text x="60" y="18" text-anchor="middle" font-family="Arial" font-size="8" font-weight="600" fill="#166534">Marks</text></g>
  <text x="630" y="260" font-family="Arial" font-size="7" fill="#166534">Green=Macro</text>
  <!-- Purple=Growth row -->
  <g transform="translate(30,302)"><rect width="135" height="28" rx="4" fill="#f3e8ff" stroke="#1e293b" stroke-width="1"/><text x="68" y="18" text-anchor="middle" font-family="Arial" font-size="8" font-weight="600" fill="#6b21a8">Fisher</text></g>
  <g transform="translate(175,302)"><rect width="135" height="28" rx="4" fill="#f3e8ff" stroke="#1e293b" stroke-width="1"/><text x="68" y="18" text-anchor="middle" font-family="Arial" font-size="8" font-weight="600" fill="#6b21a8">Cathie Wood</text></g>
  <g transform="translate(320,302)"><rect width="135" height="28" rx="4" fill="#f3e8ff" stroke="#1e293b" stroke-width="1"/><text x="68" y="18" text-anchor="middle" font-family="Arial" font-size="8" font-weight="600" fill="#6b21a8">Aschenbrenner</text></g>
  <g transform="translate(465,302)"><rect width="135" height="28" rx="4" fill="#f3e8ff" stroke="#1e293b" stroke-width="1"/><text x="68" y="18" text-anchor="middle" font-family="Arial" font-size="8" font-weight="600" fill="#6b21a8">Thiel</text></g>
  <g transform="translate(610,302)"><rect width="135" height="28" rx="4" fill="#f3e8ff" stroke="#1e293b" stroke-width="1"/><text x="68" y="18" text-anchor="middle" font-family="Arial" font-size="8" font-weight="600" fill="#6b21a8">Lynch</text></g>
  <text x="30" y="298" font-family="Arial" font-size="7" fill="#6b21a8">Purple=Growth</text>
  <!-- Orange=Crypto row -->
  <g transform="translate(30,340)"><rect width="135" height="28" rx="4" fill="#ffedd5" stroke="#1e293b" stroke-width="1"/><text x="68" y="18" text-anchor="middle" font-family="Arial" font-size="8" font-weight="600" fill="#9a3412">ARPS</text></g>
  <g transform="translate(175,340)"><rect width="135" height="28" rx="4" fill="#ffedd5" stroke="#1e293b" stroke-width="1"/><text x="68" y="18" text-anchor="middle" font-family="Arial" font-size="8" font-weight="600" fill="#9a3412">BTCdayu</text></g>
  <text x="30" y="336" font-family="Arial" font-size="7" fill="#9a3412">Orange=Crypto</text>
  <!-- Red=Chinese row -->
  <g transform="translate(370,340)"><rect width="135" height="28" rx="4" fill="#fce7e7" stroke="#1e293b" stroke-width="1"/><text x="68" y="18" text-anchor="middle" font-family="Arial" font-size="8" font-weight="600" fill="#991b1b">Duan Yongping</text></g>
  <g transform="translate(515,340)"><rect width="135" height="28" rx="4" fill="#fce7e7" stroke="#1e293b" stroke-width="1"/><text x="68" y="18" text-anchor="middle" font-family="Arial" font-size="8" font-weight="600" fill="#991b1b">Zhang Lei</text></g>
  <g transform="translate(660,340)"><rect width="135" height="28" rx="4" fill="#fce7e7" stroke="#1e293b" stroke-width="1"/><text x="68" y="18" text-anchor="middle" font-family="Arial" font-size="8" font-weight="600" fill="#991b1b">Dan Bin</text></g>
  <text x="370" y="336" font-family="Arial" font-size="7" fill="#991b1b">Red=Chinese</text>
  <text x="1000" y="375" font-family="Arial" font-size="7" fill="#64748b">Each agent has SKILL.md</text>
  <line x1="600" y1="386" x2="600" y2="402" stroke="#94a3b8" stroke-width="1.5" marker-end="url(#arrow)"/>

  <!-- Layer 4: Consensus & Risk Control -->
  <rect x="20" y="404" width="1160" height="72" rx="6" fill="#fff" stroke="#7c3aed" stroke-width="1.5"/>
  <rect x="20" y="404" width="1160" height="18" rx="6" fill="#f5f3ff" stroke="none"/>
  <rect x="20" y="416" width="1160" height="6" fill="#f5f3ff" stroke="none"/>
  <text x="30" y="417" font-family="Arial" font-size="9" font-weight="700" fill="#5b21b6">Layer 4: Consensus &amp; Risk Control</text>
  <g transform="translate(35,430)"><rect width="250" height="36" rx="5" fill="#f8fafc" stroke="#7c3aed" stroke-width="1"/><text x="125" y="15" text-anchor="middle" font-family="Arial" font-size="9" font-weight="600" fill="#5b21b6">DecisionCoordinator</text><text x="125" y="28" text-anchor="middle" font-family="Arial" font-size="7" fill="#64748b">6-layer consensus / Industry weighting / Regime routing</text></g>
  <g transform="translate(305,430)"><rect width="250" height="36" rx="5" fill="#f8fafc" stroke="#7c3aed" stroke-width="1"/><text x="125" y="15" text-anchor="middle" font-family="Arial" font-size="9" font-weight="600" fill="#5b21b6">RiskManager</text><text x="125" y="28" text-anchor="middle" font-family="Arial" font-size="7" fill="#64748b">Kelly Sizer / VaR / Calmar</text></g>
  <g transform="translate(575,430)"><rect width="250" height="36" rx="5" fill="#f8fafc" stroke="#7c3aed" stroke-width="1"/><text x="125" y="15" text-anchor="middle" font-family="Arial" font-size="9" font-weight="600" fill="#5b21b6">Backtest + IC</text><text x="125" y="28" text-anchor="middle" font-family="Arial" font-size="7" fill="#64748b">Backtest / Rolling IC</text></g>
  <g transform="translate(845,430)"><rect width="315" height="36" rx="5" fill="#f8fafc" stroke="#7c3aed" stroke-width="1"/><text x="157" y="15" text-anchor="middle" font-family="Arial" font-size="9" font-weight="600" fill="#5b21b6">Cron + Watchlist</text><text x="157" y="28" text-anchor="middle" font-family="Arial" font-size="7" fill="#64748b">Cron jobs / Watchlist</text></g>
  <line x1="600" y1="476" x2="600" y2="492" stroke="#94a3b8" stroke-width="1.5" marker-end="url(#arrow)"/>

  <!-- Layer 5: Data & Configuration -->
  <rect x="20" y="494" width="1160" height="72" rx="6" fill="#fff" stroke="#d97706" stroke-width="1.5"/>
  <rect x="20" y="494" width="1160" height="18" rx="6" fill="#fffbeb" stroke="none"/>
  <rect x="20" y="506" width="1160" height="6" fill="#fffbeb" stroke="none"/>
  <text x="30" y="507" font-family="Arial" font-size="9" font-weight="700" fill="#92400e">Layer 5: Data &amp; Configuration</text>
  <g transform="translate(35,520)"><rect width="165" height="34" rx="4" fill="#f8fafc" stroke="#d97706" stroke-width="0.8"/><text x="82" y="14" text-anchor="middle" font-family="Arial" font-size="8" font-weight="600" fill="#92400e">yfinance</text><text x="82" y="27" text-anchor="middle" font-family="Arial" font-size="7" fill="#64748b">Live quotes / US HK A-shares</text></g>
  <g transform="translate(215,520)"><rect width="150" height="34" rx="4" fill="#f8fafc" stroke="#d97706" stroke-width="0.8"/><text x="75" y="14" text-anchor="middle" font-family="Arial" font-size="8" font-weight="600" fill="#92400e">SEC 13F</text><text x="75" y="27" text-anchor="middle" font-family="Arial" font-size="7" fill="#64748b">Institutional holdings</text></g>
  <g transform="translate(380,520)"><rect width="170" height="34" rx="4" fill="#f8fafc" stroke="#d97706" stroke-width="0.8"/><text x="85" y="14" text-anchor="middle" font-family="Arial" font-size="8" font-weight="600" fill="#92400e">~/.augur/config.yaml</text><text x="85" y="27" text-anchor="middle" font-family="Arial" font-size="7" fill="#64748b">Global config</text></g>
  <g transform="translate(565,520)"><rect width="155" height="34" rx="4" fill="#f8fafc" stroke="#d97706" stroke-width="0.8"/><text x="78" y="14" text-anchor="middle" font-family="Arial" font-size="8" font-weight="600" fill="#92400e">watchlist.yaml</text><text x="78" y="27" text-anchor="middle" font-family="Arial" font-size="7" fill="#64748b">Watchlist</text></g>
  <g transform="translate(735,520)"><rect width="140" height="34" rx="4" fill="#f8fafc" stroke="#d97706" stroke-width="0.8"/><text x="70" y="14" text-anchor="middle" font-family="Arial" font-size="8" font-weight="600" fill="#92400e">backtest/</text><text x="70" y="27" text-anchor="middle" font-family="Arial" font-size="7" fill="#64748b">Backtest storage</text></g>
  <g transform="translate(890,520)"><rect width="270" height="34" rx="4" fill="#f8fafc" stroke="#d97706" stroke-width="0.8"/><text x="135" y="14" text-anchor="middle" font-family="Arial" font-size="8" font-weight="600" fill="#92400e">config/agents.yaml</text><text x="135" y="27" text-anchor="middle" font-family="Arial" font-size="7" fill="#64748b">Agent model config</text></g>
  <line x1="600" y1="566" x2="600" y2="582" stroke="#94a3b8" stroke-width="1.5" marker-end="url(#arrow)"/>

  <!-- Layer 6: Output & Push -->
  <rect x="20" y="584" width="1160" height="72" rx="6" fill="#fff" stroke="#0d9488" stroke-width="1.5"/>
  <rect x="20" y="584" width="1160" height="18" rx="6" fill="#f0fdfa" stroke="none"/>
  <rect x="20" y="596" width="1160" height="6" fill="#f0fdfa" stroke="none"/>
  <text x="30" y="597" font-family="Arial" font-size="9" font-weight="700" fill="#115e59">Layer 6: Output &amp; Push</text>
  <g transform="translate(35,610)"><rect width="200" height="36" rx="5" fill="#f8fafc" stroke="#0d9488" stroke-width="1.2"/><text x="100" y="15" text-anchor="middle" font-family="Arial" font-size="9" font-weight="600" fill="#115e59">Telegram Push</text><text x="100" y="28" text-anchor="middle" font-family="Arial" font-size="7" fill="#64748b">Signals / Reports</text></g>
  <g transform="translate(255,610)"><rect width="200" height="36" rx="5" fill="#f8fafc" stroke="#0d9488" stroke-width="1.2"/><text x="100" y="15" text-anchor="middle" font-family="Arial" font-size="9" font-weight="600" fill="#115e59">Slack Push</text><text x="100" y="28" text-anchor="middle" font-family="Arial" font-size="7" fill="#64748b">Channel notify</text></g>
  <g transform="translate(475,610)"><rect width="200" height="36" rx="5" fill="#f8fafc" stroke="#0d9488" stroke-width="1.2"/><text x="100" y="15" text-anchor="middle" font-family="Arial" font-size="9" font-weight="600" fill="#115e59">WeChat Webhook</text><text x="100" y="28" text-anchor="middle" font-family="Arial" font-size="7" fill="#64748b">WeCom / GeWeChat</text></g>
  <g transform="translate(695,610)"><rect width="200" height="36" rx="5" fill="#f8fafc" stroke="#0d9488" stroke-width="1.2"/><text x="100" y="15" text-anchor="middle" font-family="Arial" font-size="9" font-weight="600" fill="#115e59">Lark Webhook</text><text x="100" y="28" text-anchor="middle" font-family="Arial" font-size="7" fill="#64748b">Lark Bot push</text></g>
  <g transform="translate(915,610)"><rect width="245" height="36" rx="5" fill="#f8fafc" stroke="#0d9488" stroke-width="1.2"/><text x="122" y="15" text-anchor="middle" font-family="Arial" font-size="9" font-weight="600" fill="#115e59">Dashboard Toast</text><text x="122" y="28" text-anchor="middle" font-family="Arial" font-size="7" fill="#64748b">Web notifications</text></g>

  <!-- Footer -->
  <text x="600" y="680" text-anchor="middle" font-family="Arial" font-size="10" fill="#64748b">Data flow: User input → Engine dispatch → 18 Agents analyze → Consensus + Risk → Data aggregation → Multi-channel push</text>
  <text x="600" y="700" text-anchor="middle" font-family="Arial" font-size="9" fill="#94a3b8">Blue=Value(Buffett/Graham/Munger/Li Lu) | Green=Macro(Dalio/Soros/Marks) | Purple=Growth(Fisher/Wood/Aschenbrenner/Thiel/Lynch) | Orange=Crypto(ARPS/BTCdayu) | Red=Chinese(Duan Yongping/Zhang Lei/Dan Bin)</text>
  <text x="600" y="720" text-anchor="middle" font-family="Arial" font-size="8" fill="#94a3b8">Augur v6.0 - Multi-Agent Investment Analysis System</text>
</svg>
