<svg xmlns="http://www.w3.org/2000/svg" viewBox="0 0 1200 420" width="1200" height="420">
  <defs>
    <pattern id="bg-dots" width="24" height="24" patternUnits="userSpaceOnUse">
      <circle cx="12" cy="12" r="1" fill="#cbd5e1" opacity="0.3"/>
    </pattern>
  </defs>
  <rect width="1200" height="420" fill="#f8f6f0"/>
  <rect width="1200" height="420" fill="url(#bg-dots)"/>
  <rect x="10" y="10" width="1180" height="400" rx="12" fill="none" stroke="#1e293b" stroke-width="2.5"/>
  <rect x="16" y="16" width="1168" height="388" rx="10" fill="none" stroke="#64748b" stroke-width="0.5"/>

  <!-- Title panel -->
  <rect x="30" y="28" width="1140" height="68" rx="8" fill="#e8f4fd" stroke="#1e293b" stroke-width="2"/>
  <text x="600" y="57" text-anchor="middle" font-family="'Helvetica Neue',Arial,sans-serif" font-size="26" font-weight="800" fill="#0f172a">🦉 Augur</text>
  <text x="600" y="78" text-anchor="middle" font-family="Arial" font-size="12" fill="#475569">17位传奇投资大师 · 多智能体分析 · 一键部署到任意平台</text>

  <!-- Agent boxes - 3 rows -->
  <!-- Row 1: Value Investors (Blue) -->
  <g transform="translate(30,110)">
    <rect width="160" height="44" rx="6" fill="#dbeafe" stroke="#1e293b" stroke-width="1.8"/>
    <text x="80" y="20" text-anchor="middle" font-family="Arial" font-size="10" font-weight="700" fill="#1e3a5f">Warren Buffett</text>
    <text x="80" y="34" text-anchor="middle" font-family="Arial" font-size="7" fill="#475569">护城河价值投资</text>
  </g>
  <g transform="translate(205,110)">
    <rect width="160" height="44" rx="6" fill="#dbeafe" stroke="#1e293b" stroke-width="1.8"/>
    <text x="80" y="20" text-anchor="middle" font-family="Arial" font-size="10" font-weight="700" fill="#1e3a5f">Ben Graham</text><text x="80" y="34" text-anchor="middle" font-family="Arial" font-size="7" fill="#475569">深度价值·安全边际</text>
  </g>
  <g transform="translate(380,110)">
    <rect width="160" height="44" rx="6" fill="#dbeafe" stroke="#1e293b" stroke-width="1.8"/>
    <text x="80" y="20" text-anchor="middle" font-family="Arial" font-size="10" font-weight="700" fill="#1e3a5f">Charlie Munger</text><text x="80" y="34" text-anchor="middle" font-family="Arial" font-size="7" fill="#475569">格栅理论·多元思维</text>
  </g>
  <g transform="translate(555,110)">
    <rect width="160" height="44" rx="6" fill="#dbeafe" stroke="#1e293b" stroke-width="1.8"/>
    <text x="80" y="20" text-anchor="middle" font-family="Arial" font-size="10" font-weight="700" fill="#1e3a5f">Philip Fisher</text><text x="80" y="34" text-anchor="middle" font-family="Arial" font-size="7" fill="#475569">成长股·闲聊法</text>
  </g>
  <g transform="translate(730,110)">
    <rect width="160" height="44" rx="6" fill="#dbeafe" stroke="#1e293b" stroke-width="1.8"/>
    <text x="80" y="20" text-anchor="middle" font-family="Arial" font-size="10" font-weight="700" fill="#1e3a5f">Peter Lynch</text><text x="80" y="34" text-anchor="middle" font-family="Arial" font-size="7" fill="#475569">GARP成长投资</text>
  </g>
  <g transform="translate(905,110)">
    <rect width="160" height="44" rx="6" fill="#dbeafe" stroke="#1e293b" stroke-width="1.8"/>
    <text x="80" y="20" text-anchor="middle" font-family="Arial" font-size="10" font-weight="700" fill="#1e3a5f">Howard Marks</text><text x="80" y="34" text-anchor="middle" font-family="Arial" font-size="7" fill="#475569">周期·逆向投资</text>
  </g>

  <!-- Row 2: Macro & Growth (Green/Purple) -->
  <g transform="translate(30,166)">
    <rect width="160" height="44" rx="6" fill="#dcfce7" stroke="#1e293b" stroke-width="1.8"/>
    <text x="80" y="20" text-anchor="middle" font-family="Arial" font-size="10" font-weight="700" fill="#166534">Ray Dalio</text><text x="80" y="34" text-anchor="middle" font-family="Arial" font-size="7" fill="#475569">宏观·全天候策略</text>
  </g>
  <g transform="translate(205,166)">
    <rect width="160" height="44" rx="6" fill="#dcfce7" stroke="#1e293b" stroke-width="1.8"/>
    <text x="80" y="20" text-anchor="middle" font-family="Arial" font-size="10" font-weight="700" fill="#166534">George Soros</text><text x="80" y="34" text-anchor="middle" font-family="Arial" font-size="7" fill="#475569">反身性·宏观交易</text>
  </g>
  <g transform="translate(380,166)">
    <rect width="160" height="44" rx="6" fill="#dcfce7" stroke="#1e293b" stroke-width="1.8"/>
    <text x="80" y="20" text-anchor="middle" font-family="Arial" font-size="10" font-weight="700" fill="#166534">Cathie Wood</text><text x="80" y="34" text-anchor="middle" font-family="Arial" font-size="7" fill="#475569">颠覆性创新投资</text>
  </g>
  <g transform="translate(555,166)">
    <rect width="160" height="44" rx="6" fill="#f3e8ff" stroke="#1e293b" stroke-width="1.8"/>
    <text x="80" y="20" text-anchor="middle" font-family="Arial" font-size="10" font-weight="700" fill="#4c1d95">L. Aschenbrenner</text><text x="80" y="34" text-anchor="middle" font-family="Arial" font-size="7" fill="#475569">AI地缘政治</text>
  </g>
  <g transform="translate(730,166)">
    <rect width="160" height="44" rx="6" fill="#f3e8ff" stroke="#1e293b" stroke-width="1.8"/>
    <text x="80" y="20" text-anchor="middle" font-family="Arial" font-size="10" font-weight="700" fill="#4c1d95">ARPS</text><text x="80" y="34" text-anchor="middle" font-family="Arial" font-size="7" fill="#475569">Crypto·黄金宏观</text>
  </g>
  <g transform="translate(905,166)">
    <rect width="160" height="44" rx="6" fill="#fef3c7" stroke="#1e293b" stroke-width="1.8"/>
    <text x="80" y="20" text-anchor="middle" font-family="Arial" font-size="10" font-weight="700" fill="#92400e">Peter Thiel</text><text x="80" y="34" text-anchor="middle" font-family="Arial" font-size="7" fill="#475569">从0到1垄断</text>
  </g>

  <!-- Row 3: Chinese & Crypto (Red/Orange) -->
  <g transform="translate(30,222)">
    <rect width="160" height="44" rx="6" fill="#fce7e7" stroke="#1e293b" stroke-width="1.8"/>
    <text x="80" y="20" text-anchor="middle" font-family="Arial" font-size="10" font-weight="700" fill="#991b1b">段永平</text><text x="80" y="34" text-anchor="middle" font-family="Arial" font-size="7" fill="#475569">本分·极度集中</text>
  </g>
  <g transform="translate(205,222)">
    <rect width="160" height="44" rx="6" fill="#fce7e7" stroke="#1e293b" stroke-width="1.8"/>
    <text x="80" y="20" text-anchor="middle" font-family="Arial" font-size="10" font-weight="700" fill="#991b1b">张磊 (高瓴)</text><text x="80" y="34" text-anchor="middle" font-family="Arial" font-size="7" fill="#475569">长期结构性价值</text>
  </g>
  <g transform="translate(380,222)">
    <rect width="160" height="44" rx="6" fill="#fce7e7" stroke="#1e293b" stroke-width="1.8"/>
    <text x="80" y="20" text-anchor="middle" font-family="Arial" font-size="10" font-weight="700" fill="#991b1b">李录</text><text x="80" y="34" text-anchor="middle" font-family="Arial" font-size="7" fill="#475569">中国价值实践</text>
  </g>
  <g transform="translate(555,222)">
    <rect width="160" height="44" rx="6" fill="#fce7e7" stroke="#1e293b" stroke-width="1.8"/>
    <text x="80" y="20" text-anchor="middle" font-family="Arial" font-size="10" font-weight="700" fill="#991b1b">但斌</text><text x="80" y="34" text-anchor="middle" font-family="Arial" font-size="7" fill="#475569">消费+科技成长</text>
  </g>
  <g transform="translate(730,222)">
    <rect width="160" height="44" rx="6" fill="#ffedd5" stroke="#1e293b" stroke-width="1.8"/>
    <text x="80" y="20" text-anchor="middle" font-family="Arial" font-size="10" font-weight="700" fill="#9a3412">大宇 (BTCdayu)</text><text x="80" y="34" text-anchor="middle" font-family="Arial" font-size="7" fill="#475569">币圈·看准重仓</text>
  </g>

  <!-- Bottom tagline panel -->
  <rect x="30" y="286" width="1140" height="56" rx="8" fill="#f0fdf4" stroke="#1e293b" stroke-width="2"/>
  <text x="600" y="308" text-anchor="middle" font-family="Arial" font-size="11" font-weight="600" fill="#166534">📊 多Agent共识 · 🧬 人格进化追踪 · 🎨 YAML自定义 · 🔌 Hermes/Slack/Telegram 一键接入</text>
  <text x="600" y="326" text-anchor="middle" font-family="Arial" font-size="9" fill="#64748b">Python · FastAPI · 17位独立Agent Skill · Bloomberg风格仪表盘</text>

  <!-- Footer -->
  <text x="600" y="370" text-anchor="middle" font-family="Arial" font-size="9" fill="#94a3b8">v3.5 · github.com/BruceLanLan/augur</text>

  <!-- Decorative corners -->
  <path d="M30,28 L30,20 L40,20" fill="none" stroke="#2563eb" stroke-width="2.5" stroke-linecap="round"/>
  <path d="M1170,28 L1170,20 L1160,20" fill="none" stroke="#2563eb" stroke-width="2.5" stroke-linecap="round"/>
  <path d="M30,110 L30,118 L40,118" fill="none" stroke="#2563eb" stroke-width="2.5" stroke-linecap="round"/>
  <path d="M1170,110 L1170,118 L1160,118" fill="none" stroke="#2563eb" stroke-width="2.5" stroke-linecap="round"/>
</svg>
